<svg version="1.1" xmlns="http://www.w3.org/2000/svg" viewBox="-196.65500000000014 -2963.8999999999996 2999.31 3281.1"><desc>Created with Snap</desc><defs></defs><g><rect x="-196.65500000000014" y="-2963.8999999999996" width="2999.31" height="3281.1" fill="#000000" style=""></rect><g transform="matrix(32.67,0,0,32.67,-330.5,-3473.45)"><g transform="translate(0,-952.36218)"><path style="color: rgb(0, 0, 0);" d="m 27.28125,977.36217 c -9.80948,0 -13.78125,8.0587 -13.78125,18.00003 0,9.9411 10.12802,32 19.9375,32 5.25296,0 -2.09631,-14.3254 1.15625,-18 l 30.8125,0 c 3.25256,3.6746 -4.09671,18 1.15625,18 9.809489,0 19.9375,-22.0589 19.9375,-32 0,-9.94133 -5.971771,-18.00003 -15.78125,-18.00003 -5.252961,0 -7.99744,0.3254 -11.25,4 l -20.90625,0 c -3.25256,-3.6746 -6.028279,-4 -11.28125,-4 z m 1.46875,8 c 1.656851,0 3,1.34313 3,3.00003 0,1.6569 -1.343149,3 -3,3 -1.65685,0 -3,-1.3431 -3,-3 0,-1.6569 1.34315,-3.00003 3,-3.00003 z m 41.5,1.00003 4,0 c 0,2.0208 0,4.0417 0,6.0625 2,0 4,0 6,0 l 0,4 c -2,0 -4,0 -6,0 0,1.9792 0,3.9583 0,5.9375 l -4,0 c 0,-1.9792 0,-3.9583 0,-5.9375 -2,0 -4,0 -6,0 l 0,-4 c 2,0 4,0 6,0 0,-2.0208 0,-4.0417 0,-6.0625 z m -47.5,5 c 1.65685,0 3,1.3431 3,3 0,1.6569 -1.34315,3 -3,3 -1.65685,0 -3,-1.3431 -3,-3 0,-1.6569 1.34315,-3 3,-3 z m 12,0 c 1.656851,0 3,1.3431 3,3 0,1.6569 -1.343149,3 -3,3 -1.65685,0 -3,-1.3431 -3,-3 0,-1.6569 1.34315,-3 3,-3 z m -6,6 c 1.656851,0 3,1.3431 3,3 0,1.6569 -1.343149,3 -3,3 -1.65685,0 -3,-1.3431 -3,-3 0,-1.6569 1.34315,-3 3,-3 z" fill="#ffffff" stroke="none" marker="none" visibility="visible" display="inline" overflow="visible"></path></g><desc>Created with Snap</desc><defs></defs></g><g><g transform="matrix(0.5,0,0,-0.5,0,0)"><path d="M1085 1431Q1309 1431 1510 1352L1547 1337L1468 1121L1430 1134Q1236 1199 1079 1199Q955 1199 849 1158Q744 1118 674 1050Q605 982 566 894Q528 806 528 710Q528 611 569 521Q611 432 685 364Q760 297 873 257Q986 218 1120 218Q1284 218 1448 276L1485 289L1567 89L1530 73Q1313 -20 1072 -20Q885 -20 732 37Q580 94 481 193Q382 293 328 425Q275 557 275 709Q275 863 330 995Q385 1127 487 1224Q589 1321 743 1376Q897 1431 1085 1431ZM3220 791L3220 206Q3013 -20 2628 -20Q2464 -20 2328 22Q2193 65 2102 135Q2011 206 1948 301Q1886 396 1858 498Q1830 601 1830 709Q1830 822 1861 927Q1892 1032 1957 1124Q2023 1216 2115 1284Q2208 1353 2339 1392Q2470 1432 2625 1432Q2908 1432 3134 1306L3169 1286L3064 1088L3028 1107Q2957 1143 2850 1171Q2743 1200 2635 1200Q2529 1200 2430 1167Q2331 1134 2253 1074Q2176 1014 2129 921Q2083 829 2083 719Q2083 574 2159 458Q2235 342 2369 277Q2504 213 2672 213Q2856 213 2973 296L2973 569L2528 569L2528 791L3220 791ZM4455 1431Q4679 1431 4880 1352L4917 1337L4838 1121L4800 1134Q4606 1199 4449 1199Q4325 1199 4219 1158Q4114 1118 4044 1050Q3975 982 3936 894Q3898 806 3898 710Q3898 611 3939 521Q3981 432 4055 364Q4130 297 4243 257Q4356 218 4490 218Q4654 218 4818 276L4855 289L4937 89L4900 73Q4683 -20 4442 -20Q4255 -20 4102 37Q3950 94 3851 193Q3752 293 3698 425Q3645 557 3645 709Q3645 863 3700 995Q3755 1127 3857 1224Q3959 1321 4113 1376Q4267 1431 4455 1431Z" fill="#ffffff" style=""></path></g></g></g></svg>